<svg width="232" height="37" viewBox="0 0 232 37" fill="none" xmlns="http://www.w3.org/2000/svg">
<g clip-path="url(#clip0_1984_26073)">
<path fill-rule="evenodd" clip-rule="evenodd" d="M4.37524 31.5481H10.6827V20.8368H4.37524V31.5481Z" fill="#1B0303"/>
<path fill-rule="evenodd" clip-rule="evenodd" d="M11.1588 15.4818C11.1588 17.4982 9.56019 19.134 7.58847 19.134C5.61681 19.134 4.01813 17.4982 4.01813 15.4818C4.01813 13.4652 5.61681 11.8302 7.58847 11.8302C9.56019 11.8302 11.1588 13.4652 11.1588 15.4818Z" fill="#1B0303"/>
<path fill-rule="evenodd" clip-rule="evenodd" d="M22.2016 3.41162C26.5875 3.41162 30.2427 4.62689 32.7723 6.92609C35.6319 9.52515 37.0818 13.4629 37.0818 18.63C37.0818 28.8704 32.2145 33.8485 22.2016 33.8485H2.27937V3.41162H22.2016ZM22.6298 1.08044H0V36.1797H22.6298V36.173C27.5731 36.1041 31.489 34.8482 34.2679 32.4302C37.6476 29.4895 39.3612 24.8464 39.3612 18.63C39.3612 15.6585 38.9105 12.9931 38.0216 10.708C37.1712 8.52195 35.9145 6.66327 34.2865 5.18358C31.4192 2.57739 27.3942 1.16823 22.6298 1.08817V1.08044Z" fill="#1B0303"/>
<path fill-rule="evenodd" clip-rule="evenodd" d="M21.2562 31.5603H13.5786V19.0398H14.4612C14.9196 19.0398 15.2941 18.9939 15.5741 18.9032C15.9518 18.7794 16.2575 18.6026 16.4832 18.3777C16.7763 18.0866 17.0044 17.7026 17.161 17.2366C17.2881 16.8579 17.3526 16.4036 17.3526 15.8864C17.3526 15.3002 17.284 14.7978 17.1489 14.3931C17.0119 13.9829 16.8085 13.6305 16.5445 13.3457C16.2766 13.0567 15.9504 12.8528 15.5751 12.7397C15.2973 12.6568 14.9118 12.6166 14.3962 12.6166H13.5786V6.24963H21.2562C27.638 6.24963 34.4131 8.71339 34.9907 17.6744H32.1628V12.6665H30.6364V19.0398H35.0302C34.9848 29.5184 27.9069 31.5603 21.2562 31.5603ZM13.9416 13.982H13.5786V17.6744H14.2997C14.6213 17.6744 14.8529 17.6566 14.989 17.6213C15.1572 17.5784 15.2975 17.5061 15.4057 17.4063C15.5118 17.3085 15.6022 17.1363 15.6745 16.8947C15.7508 16.6395 15.7895 16.2814 15.7895 15.8303C15.7895 15.3805 15.7512 15.034 15.6756 14.8006C15.6032 14.5769 15.5026 14.402 15.3767 14.2809C15.2528 14.1617 15.0911 14.0793 14.895 14.036C14.7877 14.0113 14.5352 13.982 13.9416 13.982ZM18.3855 12.6166V19.0398H23.2333V17.6744H19.9119V16.3631H22.8954V14.9977H19.9119V13.982H23.1193V12.6166H18.3855ZM26.0221 12.6166L23.5816 19.0398H25.2091L25.7019 17.6578H27.8552L28.3748 19.0398H30.0352L27.5236 12.6166H26.0221ZM27.3468 16.2923L26.7618 14.6843L26.1886 16.2923H27.3468Z" fill="#CD0067"/>
</g>
<g clip-path="url(#clip1_1984_26073)">
<path d="M84.913 2.72036C84.1948 2.07984 83.3527 1.59747 82.4402 1.30394C81.5278 1.01041 80.5649 0.912128 79.6129 1.01535H72.6648C72.4281 1.01547 72.1991 1.10091 72.0191 1.25634C71.839 1.41178 71.7196 1.62702 71.6823 1.86348L68.7909 20.4234C68.7776 20.5094 68.7827 20.5973 68.8061 20.6811C68.8295 20.7648 68.8705 20.8425 68.9264 20.9087C68.9824 20.975 69.052 21.0282 69.1303 21.0647C69.2087 21.1012 69.2939 21.1201 69.3802 21.12H73.6689L74.7465 14.2081L74.7134 14.4252C74.7497 14.1892 74.8683 13.974 75.0476 13.8185C75.227 13.663 75.4553 13.5774 75.6915 13.5771H77.73C81.7335 13.5771 84.8683 11.9318 85.7846 7.17382C85.8115 7.03295 85.835 6.89597 85.8552 6.76287C86.0307 6.06251 86.0367 5.32967 85.8727 4.62646C85.7087 3.92326 85.3795 3.27042 84.913 2.72328" fill="#1B0303"/>
<path d="M85.289 29.1059C85.1334 30.1391 84.354 30.1391 83.6006 30.1391H83.1684L83.4695 28.2111C83.4781 28.1547 83.5063 28.1033 83.5491 28.0662C83.5919 28.029 83.6465 28.0086 83.7029 28.0085H83.9002C84.4131 28.0085 84.8986 28.0085 85.1478 28.3C85.2283 28.4148 85.283 28.5461 85.3079 28.6846C85.3328 28.8231 85.3273 28.9654 85.2919 29.1015M84.9634 26.407H82.1196C82.0254 26.4072 81.9344 26.4414 81.8629 26.5033C81.7913 26.5653 81.7439 26.651 81.7292 26.7451L80.5767 34.1204C80.5714 34.1544 80.5735 34.1892 80.5827 34.2224C80.5919 34.2556 80.608 34.2864 80.63 34.3127C80.6522 34.3391 80.6798 34.3603 80.7109 34.3749C80.742 34.3895 80.7758 34.3971 80.8101 34.3973H82.2695C82.3354 34.3974 82.3992 34.3737 82.4494 34.3304C82.4996 34.2871 82.5328 34.2271 82.5432 34.1612L82.8702 32.07C82.8846 31.9758 82.9319 31.8899 83.0035 31.8279C83.0752 31.7659 83.1663 31.7318 83.2606 31.7319H84.161C84.5526 31.7763 84.9491 31.74 85.3266 31.6253C85.704 31.5106 86.0546 31.3197 86.3572 31.0643C86.6598 30.8089 86.9081 30.4941 87.0872 30.139C87.2664 29.7839 87.3726 29.3958 87.3995 28.998C87.4783 28.6807 87.4866 28.3496 87.4239 28.0286C87.3611 27.7075 87.2288 27.4046 87.0365 27.1415C86.7629 26.8766 86.4361 26.6744 86.0784 26.5487C85.7207 26.423 85.3404 26.3766 84.9634 26.4128" fill="#1B0303"/>
<path d="M65.005 29.1059C64.8494 30.1391 64.07 30.1391 63.3151 30.1391H62.8829L63.184 28.2111C63.1926 28.1547 63.2209 28.1033 63.2637 28.0662C63.3065 28.029 63.361 28.0086 63.4174 28.0085H63.6148C64.1276 28.0085 64.6131 28.0085 64.8623 28.3C64.943 28.4147 64.9977 28.546 65.0225 28.6845C65.0474 28.823 65.0419 28.9654 65.0064 29.1015M64.6779 26.407H61.8341C61.74 26.4072 61.6489 26.4414 61.5774 26.5033C61.5059 26.5653 61.4585 26.651 61.4437 26.7451L60.2912 34.1204C60.2859 34.1544 60.2879 34.1893 60.2971 34.2225C60.3063 34.2557 60.3225 34.2865 60.3445 34.3127C60.3667 34.3392 60.3943 34.3605 60.4254 34.3751C60.4565 34.3897 60.4903 34.3972 60.5246 34.3973H61.8831C61.9774 34.3974 62.0686 34.3633 62.1402 34.3013C62.2118 34.2393 62.2591 34.1534 62.2735 34.0592L62.5847 32.07C62.5992 31.9758 62.6465 31.8899 62.7181 31.8279C62.7897 31.7659 62.8809 31.7318 62.9751 31.7319H63.8755C64.2671 31.7761 64.6634 31.7397 65.0407 31.6248C65.4179 31.51 65.7683 31.3191 66.0708 31.0637C66.3732 30.8083 66.6214 30.4936 66.8005 30.1386C66.9795 29.7836 67.0857 29.3956 67.1126 28.998C67.1914 28.6807 67.1997 28.3496 67.137 28.0286C67.0742 27.7075 66.9419 27.4046 66.7496 27.1415C66.476 26.8766 66.1492 26.6744 65.7915 26.5487C65.4338 26.423 65.0535 26.3766 64.6765 26.4128M71.2789 31.7552C71.2249 32.1258 71.0388 32.4637 70.7557 32.7053C70.4726 32.9468 70.112 33.0754 69.7417 33.0668C69.5716 33.0771 69.4013 33.0492 69.2431 32.9849C69.0849 32.9206 68.9428 32.8217 68.8269 32.6952C68.7233 32.5596 68.6504 32.4027 68.6136 32.2354C68.5767 32.0682 68.5768 31.8948 68.6137 31.7275C68.6655 31.3568 68.8489 31.0178 69.1296 30.7737C69.4103 30.5297 69.7692 30.3974 70.1394 30.4014C70.3087 30.3927 70.4778 30.4219 70.6347 30.4869C70.7915 30.5518 70.9323 30.651 71.047 30.7774C71.1532 30.9128 71.2289 31.0702 71.2687 31.2383C71.3085 31.4065 71.3115 31.5814 71.2775 31.7508M73.1748 29.0694H71.8134C71.7568 29.0694 71.7021 29.0898 71.659 29.1269C71.616 29.1641 71.5875 29.2155 71.5785 29.272L71.5195 29.6567L71.4244 29.511C71.218 29.2959 70.9657 29.1316 70.6867 29.0305C70.4078 28.9295 70.1096 28.8944 69.8152 28.9281C69.0646 28.9444 68.3447 29.233 67.7868 29.7412C67.2288 30.2494 66.87 30.9435 66.7755 31.6969C66.7039 32.0657 66.7121 32.4459 66.7997 32.8112C66.8872 33.1764 67.052 33.5182 67.2826 33.8129C67.4979 34.0525 67.7639 34.2399 68.0607 34.3613C68.3575 34.4826 68.6775 34.5348 68.9969 34.5138C69.3475 34.5174 69.6952 34.4495 70.0192 34.314C70.3432 34.1785 70.6369 33.9784 70.8827 33.7255L70.8222 34.1087C70.8166 34.143 70.8185 34.1781 70.8277 34.2116C70.8369 34.2451 70.8532 34.2761 70.8755 34.3025C70.8977 34.329 70.9253 34.3503 70.9564 34.3649C70.9874 34.3795 71.0213 34.387 71.0556 34.3871H72.2816C72.3758 34.3871 72.467 34.3531 72.5386 34.2911C72.6102 34.2291 72.6575 34.1432 72.672 34.049L73.4081 29.3332C73.4134 29.2988 73.4113 29.2637 73.4018 29.2302C73.3924 29.1968 73.3758 29.1658 73.3534 29.1394C73.3312 29.113 73.3036 29.0918 73.2725 29.0772C73.2414 29.0626 73.2076 29.055 73.1733 29.0549" fill="#1B0303"/>
<path d="M91.5629 31.7538C91.5089 32.1245 91.3228 32.4624 91.0397 32.7039C90.7566 32.9455 90.396 33.074 90.0257 33.0654C89.8556 33.0757 89.6853 33.0478 89.5271 32.9835C89.3689 32.9193 89.2267 32.8203 89.1109 32.6938C89.0073 32.5583 88.9344 32.4013 88.8976 32.234C88.8607 32.0668 88.8608 31.8934 88.8977 31.7262C88.9492 31.3553 89.1324 31.0161 89.4132 30.772C89.694 30.5279 90.0531 30.3957 90.4234 30.4C90.5927 30.3913 90.7618 30.4205 90.9186 30.4855C91.0755 30.5505 91.2163 30.6497 91.3309 30.776C91.4372 30.9115 91.5129 31.0688 91.5527 31.2369C91.5925 31.4051 91.5955 31.58 91.5614 31.7495M93.4588 29.0681H92.0959C92.0393 29.0681 91.9846 29.0884 91.9416 29.1256C91.8986 29.1627 91.87 29.2141 91.8611 29.2706L91.802 29.6554L91.707 29.5096C91.5006 29.2946 91.2482 29.1302 90.9693 29.0291C90.6903 28.9281 90.3922 28.8931 90.0978 28.9267C89.3471 28.943 88.6273 29.2316 88.0693 29.7398C87.5114 30.248 87.1525 30.9421 87.0581 31.6955C86.9864 32.0644 86.9947 32.4445 87.0822 32.8098C87.1698 33.1751 87.3345 33.5168 87.5651 33.8115C87.7805 34.0511 88.0464 34.2386 88.3432 34.3599C88.64 34.4813 88.96 34.5334 89.2795 34.5125C89.6301 34.5161 89.9778 34.4481 90.3018 34.3126C90.6258 34.1772 90.9195 33.977 91.1653 33.7241L91.1048 34.1074C91.0992 34.1416 91.1011 34.1767 91.1103 34.2102C91.1195 34.2437 91.1358 34.2747 91.1581 34.3012C91.1802 34.3276 91.2078 34.3489 91.2389 34.3635C91.27 34.3781 91.3039 34.3857 91.3381 34.3857H92.5641C92.6583 34.3855 92.7493 34.3513 92.8209 34.2894C92.8924 34.2274 92.9398 34.1417 92.9545 34.0476L93.6907 29.3318C93.696 29.2975 93.6938 29.2623 93.6843 29.2288C93.6749 29.1954 93.6584 29.1644 93.6359 29.138C93.6137 29.1116 93.5861 29.0904 93.555 29.0758C93.524 29.0612 93.4901 29.0536 93.4559 29.0535" fill="#1B0303"/>
<path d="M80.4298 29.0738H79.0612C78.9967 29.0736 78.9331 29.0894 78.8761 29.1199C78.819 29.1504 78.7703 29.1946 78.7342 29.2487L76.8455 32.0612L76.0445 29.358C76.0211 29.2744 75.9715 29.2008 75.9032 29.1483C75.8348 29.0957 75.7515 29.067 75.6656 29.0665H74.3201C74.2823 29.0666 74.2451 29.0757 74.2115 29.0932C74.178 29.1107 74.149 29.136 74.127 29.1671C74.1051 29.1981 74.0908 29.234 74.0852 29.2718C74.0797 29.3095 74.0832 29.3481 74.0953 29.3842L75.6022 33.8595L74.1875 35.8852C74.1624 35.9211 74.1474 35.9634 74.1444 36.0073C74.1413 36.0512 74.1503 36.0952 74.1703 36.1343C74.1903 36.1733 74.2204 36.206 74.2575 36.2289C74.2946 36.2518 74.3372 36.2639 74.3806 36.264H75.7477C75.8115 36.2639 75.8742 36.2481 75.9306 36.2182C75.987 36.1883 76.0355 36.145 76.0719 36.0921L80.6228 29.4469C80.6476 29.411 80.6622 29.3689 80.665 29.3253C80.6678 29.2816 80.6587 29.2379 80.6387 29.1991C80.6186 29.1603 80.5883 29.1278 80.5513 29.1052C80.5142 29.0826 80.4716 29.0707 80.4283 29.0709" fill="#1B0303"/>
<path d="M95.065 26.6138L93.8981 34.1246C93.8931 34.1588 93.8953 34.1937 93.9048 34.2269C93.9142 34.26 93.9306 34.2908 93.9529 34.317C93.9751 34.3434 94.0027 34.3646 94.0338 34.3792C94.0649 34.3938 94.0987 34.4014 94.133 34.4015H95.3071C95.4013 34.4013 95.4923 34.3672 95.5638 34.3052C95.6354 34.2432 95.6827 34.1575 95.6975 34.0634L96.85 26.6867C96.8556 26.6524 96.8537 26.6173 96.8445 26.5838C96.8353 26.5503 96.819 26.5193 96.7967 26.4928C96.7745 26.4664 96.747 26.4451 96.7159 26.4305C96.6848 26.4159 96.6509 26.4084 96.6166 26.4083H95.3028C95.2461 26.408 95.1912 26.4283 95.1481 26.4655C95.105 26.5026 95.0766 26.5543 95.0679 26.6109" fill="#1B0303"/>
<path d="M84.913 2.72036C84.1948 2.07984 83.3527 1.59747 82.4402 1.30394C81.5278 1.01041 80.5649 0.912128 79.6129 1.01535H72.6648C72.4281 1.01547 72.1991 1.10091 72.0191 1.25634C71.839 1.41178 71.7196 1.62702 71.6823 1.86348L68.7909 20.4234C68.7776 20.5094 68.7827 20.5973 68.8061 20.6811C68.8295 20.7648 68.8705 20.8425 68.9264 20.9087C68.9824 20.975 69.052 21.0282 69.1303 21.0647C69.2087 21.1012 69.2939 21.1201 69.3802 21.12H73.6689L74.7465 14.2081L74.7134 14.4252C74.7497 14.1892 74.8683 13.974 75.0476 13.8185C75.227 13.663 75.4553 13.5774 75.6915 13.5771H77.73C81.7335 13.5771 84.8683 11.9318 85.7846 7.17382C85.8115 7.03295 85.835 6.89597 85.8552 6.76287C86.0307 6.06251 86.0367 5.32967 85.8727 4.62646C85.7087 3.92326 85.3795 3.27042 84.913 2.72328" fill="#1B0303"/>
<path d="M75.9091 6.7846C75.9406 6.57637 76.0455 6.38666 76.2043 6.25038C76.3631 6.1141 76.5652 6.0404 76.7734 6.04284H82.219C82.8203 6.03877 83.421 6.08263 84.0155 6.174C84.316 6.22281 84.6133 6.28996 84.9058 6.37509C85.2381 6.46942 85.5597 6.59887 85.8652 6.76128C86.0401 6.0597 86.0449 5.32576 85.8791 4.62192C85.7133 3.91808 85.3819 3.26518 84.913 2.71878C84.1947 2.0784 83.3526 1.59614 82.4402 1.30261C81.5277 1.00909 80.5649 0.910724 79.6129 1.01376H72.6662C72.4295 1.01388 72.2006 1.09933 72.0205 1.25476C71.8405 1.4102 71.7211 1.62544 71.6837 1.86189L68.7909 20.4204C68.7776 20.5064 68.7827 20.5943 68.8061 20.678C68.8295 20.7618 68.8705 20.8394 68.9264 20.9057C68.9824 20.972 69.052 21.0252 69.1303 21.0617C69.2087 21.0982 69.2939 21.117 69.3801 21.117H73.6689L74.7465 14.2051L75.9091 6.7846Z" fill="#003087"/>
<path d="M85.8552 6.75265C85.8341 6.8906 85.8105 7.02758 85.7846 7.1636C84.8684 11.9216 81.7336 13.5669 77.7301 13.5669H75.6916C75.4554 13.5672 75.227 13.6528 75.0477 13.8083C74.8683 13.9638 74.7498 14.1789 74.7134 14.415L73.6704 21.1083L73.3736 23.0028C73.3617 23.0781 73.3661 23.1552 73.3865 23.2287C73.4069 23.3021 73.4428 23.3703 73.4917 23.4283C73.5408 23.4865 73.6018 23.5331 73.6704 23.5651C73.7391 23.5971 73.8138 23.6135 73.8893 23.6134H77.5053C77.7136 23.6158 77.9157 23.5421 78.0745 23.4058C78.2333 23.2696 78.3381 23.0799 78.3697 22.8716L78.4043 22.6851L79.0857 18.3133L79.1289 18.0714C79.1605 17.8631 79.2653 17.6734 79.4241 17.5371C79.5829 17.4009 79.785 17.3272 79.9933 17.3296H80.535C84.0371 17.3296 86.7786 15.8913 87.5811 11.7278C87.7926 11.0174 87.8377 10.267 87.7127 9.53596C87.5877 8.80492 87.296 8.11341 86.8607 7.51625C86.58 7.20011 86.2446 6.93839 85.871 6.7439" fill="#009CDE"/>
<path d="M84.8971 6.37371C84.7579 6.33193 84.6138 6.29454 84.4649 6.2615C84.3209 6.22799 84.1639 6.19884 84.0068 6.17407C83.4125 6.08127 82.8117 6.03692 82.2104 6.04145H76.7648C76.5563 6.03907 76.3541 6.11298 76.1952 6.24955C76.0364 6.38613 75.9317 6.57617 75.9004 6.78467L74.7479 14.2095L74.7148 14.4252C74.7512 14.1891 74.8697 13.9739 75.0491 13.8184C75.2284 13.6629 75.4568 13.5773 75.693 13.5771H77.7315C81.735 13.5771 84.8698 11.9318 85.786 7.17376C85.8134 7.02803 85.8364 6.89688 85.8566 6.76281C85.6147 6.63459 85.3627 6.52687 85.1031 6.44075L84.8971 6.37518" fill="#012169"/>
</g>
<g clip-path="url(#clip2_1984_26073)">
<mask id="mask0_1984_26073" style="mask-type:luminance" maskUnits="userSpaceOnUse" x="134" y="11" width="7" height="15">
<path fill-rule="evenodd" clip-rule="evenodd" d="M138.397 25.9366H134.536L136.951 11.3928H140.812L138.397 25.9366Z" fill="white"/>
</mask>
<g mask="url(#mask0_1984_26073)">
<mask id="mask1_1984_26073" style="mask-type:luminance" maskUnits="userSpaceOnUse" x="105" y="-7" width="73" height="51">
<path d="M177.646 -6.51318H105.645V43.669H177.646V-6.51318Z" fill="white"/>
</mask>
<g mask="url(#mask1_1984_26073)">
<path d="M146.267 5.93628H129.081V31.3903H146.267V5.93628Z" fill="#0742A6"/>
</g>
</g>
<mask id="mask2_1984_26073" style="mask-type:luminance" maskUnits="userSpaceOnUse" x="140" y="11" width="13" height="16">
<path fill-rule="evenodd" clip-rule="evenodd" d="M152.395 11.7427C151.288 11.3274 150.115 11.1174 148.933 11.1227C145.118 11.1227 142.432 13.1044 142.415 15.9351C142.385 18.0242 144.34 19.1852 145.799 19.8811C147.294 20.5927 147.801 21.0562 147.801 21.692C147.787 22.666 146.594 23.1163 145.482 23.1163C144.231 23.151 142.989 22.8858 141.861 22.3423L141.351 22.1112L140.811 25.3754C142.187 25.895 143.648 26.1571 145.119 26.1493C149.167 26.1493 151.811 24.2015 151.841 21.188C151.856 19.5338 150.824 18.2631 148.599 17.2277C147.249 16.5618 146.422 16.1126 146.422 15.4324C146.439 14.8135 147.122 14.179 148.642 14.179C149.629 14.1515 150.61 14.3418 151.515 14.7365L151.865 14.8895L152.395 11.7427Z" fill="white"/>
</mask>
<g mask="url(#mask2_1984_26073)">
<mask id="mask3_1984_26073" style="mask-type:luminance" maskUnits="userSpaceOnUse" x="105" y="-7" width="73" height="51">
<path d="M177.646 -6.51196H105.645V43.6702H177.646V-6.51196Z" fill="white"/>
</mask>
<g mask="url(#mask3_1984_26073)">
<path d="M157.85 5.67395H135.357V31.6085H157.85V5.67395Z" fill="#0742A6"/>
</g>
</g>
<mask id="mask4_1984_26073" style="mask-type:luminance" maskUnits="userSpaceOnUse" x="151" y="11" width="15" height="15">
<path d="M162.295 11.3912H159.307C158.884 11.3386 158.455 11.429 158.089 11.6478C157.724 11.8666 157.442 12.2014 157.288 12.599L151.552 25.9352H155.6C155.6 25.9352 156.269 24.1411 156.411 23.7533H161.372C161.482 24.2638 161.833 25.9352 161.833 25.9352H165.41L162.295 11.3912ZM157.527 20.783C157.847 19.9474 159.071 16.7133 159.071 16.7133C159.055 16.7446 159.387 15.8631 159.578 15.3212L159.848 16.5734C159.848 16.5734 160.58 20.0557 160.738 20.783H157.527Z" fill="white"/>
</mask>
<g mask="url(#mask4_1984_26073)">
<mask id="mask5_1984_26073" style="mask-type:luminance" maskUnits="userSpaceOnUse" x="105" y="-7" width="73" height="51">
<path d="M177.646 -6.51196H105.645V43.6702H177.646V-6.51196Z" fill="white"/>
</mask>
<g mask="url(#mask5_1984_26073)">
<path d="M170.865 5.93762H146.099V31.3904H170.865V5.93762Z" fill="#0742A6"/>
</g>
</g>
<mask id="mask6_1984_26073" style="mask-type:luminance" maskUnits="userSpaceOnUse" x="121" y="11" width="15" height="15">
<path fill-rule="evenodd" clip-rule="evenodd" d="M131.31 11.3912L127.524 21.3145L127.113 19.3037C126.155 16.6772 124.25 14.5032 121.773 13.2076L125.238 25.9273H129.319L135.389 11.3979L131.31 11.3912Z" fill="white"/>
</mask>
<g mask="url(#mask6_1984_26073)">
<mask id="mask7_1984_26073" style="mask-type:luminance" maskUnits="userSpaceOnUse" x="105" y="-7" width="73" height="51">
<path d="M177.646 -6.51196H105.645V43.6702H177.646V-6.51196Z" fill="white"/>
</mask>
<g mask="url(#mask7_1984_26073)">
<path d="M140.848 5.93762H116.321V31.376H140.848V5.93762Z" fill="#0742A6"/>
</g>
</g>
<mask id="mask8_1984_26073" style="mask-type:luminance" maskUnits="userSpaceOnUse" x="117" y="11" width="11" height="9">
<path fill-rule="evenodd" clip-rule="evenodd" d="M124.016 11.3913H117.805L117.741 11.6852C122.587 12.893 125.797 15.8021 127.116 19.2987L125.764 12.6148C125.675 12.231 125.448 11.8939 125.125 11.668C124.802 11.4422 124.407 11.3434 124.016 11.3913Z" fill="white"/>
</mask>
<g mask="url(#mask8_1984_26073)">
<mask id="mask9_1984_26073" style="mask-type:luminance" maskUnits="userSpaceOnUse" x="105" y="-7" width="73" height="51">
<path d="M177.646 -6.51196H105.645V43.6702H177.646V-6.51196Z" fill="white"/>
</mask>
<g mask="url(#mask9_1984_26073)">
<path d="M132.569 5.93762H112.286V24.7536H132.569V5.93762Z" fill="#0742A6"/>
</g>
</g>
</g>
<g clip-path="url(#clip3_1984_26073)">
<path d="M194.584 36.308V33.9526C194.584 33.0517 194.035 32.4617 193.093 32.4617C192.622 32.4617 192.11 32.6172 191.758 33.1294C191.483 32.6995 191.09 32.4617 190.5 32.4617C190.107 32.4617 189.713 32.5806 189.402 33.0105V32.5394H188.579V36.308H189.402V34.227C189.402 33.5593 189.755 33.2437 190.303 33.2437C190.852 33.2437 191.127 33.5959 191.127 34.227V36.308H191.95V34.227C191.95 33.5593 192.343 33.2437 192.851 33.2437C193.4 33.2437 193.674 33.5959 193.674 34.227V36.308H194.584ZM206.795 32.5394H205.46V31.4006H204.637V32.5394H203.891V33.2849H204.637V35.0137C204.637 35.8781 204.989 36.3857 205.931 36.3857C206.283 36.3857 206.676 36.2668 206.951 36.1113L206.713 35.4024C206.475 35.5579 206.201 35.5991 206.004 35.5991C205.611 35.5991 205.455 35.3613 205.455 34.9725V33.2849H206.791V32.5394H206.795ZM213.784 32.4571C213.313 32.4571 212.997 32.6949 212.8 33.0059V32.5349H211.977V36.3034H212.8V34.1813C212.8 33.5547 213.075 33.198 213.587 33.198C213.743 33.198 213.939 33.2392 214.099 33.2758L214.337 32.4891C214.172 32.4571 213.939 32.4571 213.784 32.4571ZM203.223 32.8504C202.83 32.576 202.281 32.4571 201.691 32.4571C200.749 32.4571 200.123 32.9282 200.123 33.6737C200.123 34.3002 200.594 34.657 201.417 34.7713L201.81 34.8125C202.24 34.8902 202.478 35.0091 202.478 35.2058C202.478 35.4802 202.162 35.6769 201.614 35.6769C201.065 35.6769 200.63 35.4802 200.356 35.2835L199.963 35.9101C200.392 36.2257 200.982 36.3812 201.572 36.3812C202.67 36.3812 203.301 35.8689 203.301 35.1646C203.301 34.4969 202.789 34.1447 202.007 34.0258L201.614 33.9847C201.261 33.9435 200.987 33.8657 200.987 33.6325C200.987 33.3581 201.261 33.2026 201.696 33.2026C202.167 33.2026 202.638 33.3992 202.876 33.5182L203.223 32.8504ZM225.126 32.4571C224.655 32.4571 224.339 32.6949 224.143 33.0059V32.5349H223.319V36.3034H224.143V34.1813C224.143 33.5547 224.417 33.198 224.929 33.198C225.085 33.198 225.282 33.2392 225.442 33.2758L225.679 32.4983C225.519 32.4571 225.286 32.4571 225.126 32.4571ZM214.607 34.4237C214.607 35.5625 215.394 36.3857 216.61 36.3857C217.159 36.3857 217.552 36.2668 217.946 35.9558L217.552 35.2881C217.237 35.5259 216.926 35.6403 216.569 35.6403C215.901 35.6403 215.43 35.1692 215.43 34.4237C215.43 33.7148 215.901 33.2437 216.569 33.2072C216.921 33.2072 217.237 33.3261 217.552 33.5593L217.946 32.8916C217.552 32.576 217.159 32.4617 216.61 32.4617C215.394 32.4571 214.607 33.2849 214.607 34.4237ZM222.222 34.4237V32.5394H221.399V33.0105C221.124 32.6583 220.731 32.4617 220.219 32.4617C219.158 32.4617 218.334 33.2849 218.334 34.4237C218.334 35.5625 219.158 36.3857 220.219 36.3857C220.767 36.3857 221.161 36.1891 221.399 35.8369V36.308H222.222V34.4237ZM219.199 34.4237C219.199 33.756 219.629 33.2072 220.338 33.2072C221.005 33.2072 221.476 33.7194 221.476 34.4237C221.476 35.0914 221.005 35.6403 220.338 35.6403C219.633 35.5991 219.199 35.0869 219.199 34.4237ZM209.347 32.4571C208.25 32.4571 207.463 33.2437 207.463 34.4191C207.463 35.5991 208.25 36.3812 209.389 36.3812C209.937 36.3812 210.486 36.2257 210.921 35.8689L210.527 35.279C210.212 35.5168 209.818 35.6723 209.43 35.6723C208.918 35.6723 208.41 35.4345 208.291 34.7713H211.076C211.076 34.6524 211.076 34.5746 211.076 34.4557C211.113 33.2437 210.404 32.4571 209.347 32.4571ZM209.347 33.166C209.86 33.166 210.212 33.4816 210.29 34.067H208.328C208.405 33.5593 208.757 33.166 209.347 33.166ZM229.8 34.4237V31.0485H228.977V33.0105C228.702 32.6583 228.309 32.4617 227.797 32.4617C226.736 32.4617 225.913 33.2849 225.913 34.4237C225.913 35.5625 226.736 36.3857 227.797 36.3857C228.346 36.3857 228.739 36.1891 228.977 35.8369V36.308H229.8V34.4237ZM226.777 34.4237C226.777 33.756 227.207 33.2072 227.916 33.2072C228.584 33.2072 229.055 33.7194 229.055 34.4237C229.055 35.0914 228.584 35.6403 227.916 35.6403C227.207 35.5991 226.777 35.0869 226.777 34.4237ZM199.217 34.4237V32.5394H198.394V33.0105C198.119 32.6583 197.726 32.4617 197.214 32.4617C196.153 32.4617 195.33 33.2849 195.33 34.4237C195.33 35.5625 196.153 36.3857 197.214 36.3857C197.763 36.3857 198.156 36.1891 198.394 35.8369V36.308H199.217V34.4237ZM196.157 34.4237C196.157 33.756 196.587 33.2072 197.296 33.2072C197.964 33.2072 198.435 33.7194 198.435 34.4237C198.435 35.0914 197.964 35.6403 197.296 35.6403C196.587 35.5991 196.157 35.0869 196.157 34.4237Z" fill="black"/>
<path d="M215.316 3.91821H202.949V26.1363H215.316V3.91821Z" fill="#FF5A00"/>
<path d="M203.772 15.0274C203.772 10.5133 205.894 6.50696 209.151 3.91835C206.754 2.03407 203.731 0.895264 200.434 0.895264C192.622 0.895264 186.302 7.21585 186.302 15.0274C186.302 22.8389 192.622 29.1595 200.434 29.1595C203.731 29.1595 206.754 28.0207 209.151 26.1364C205.89 23.5844 203.772 19.5414 203.772 15.0274Z" fill="#EB001B"/>
<path d="M232 15.0274C232 22.8389 225.679 29.1595 217.868 29.1595C214.57 29.1595 211.547 28.0207 209.151 26.1364C212.448 23.5433 214.529 19.5414 214.529 15.0274C214.529 10.5133 212.407 6.50696 209.151 3.91835C211.543 2.03407 214.566 0.895264 217.863 0.895264C225.679 0.895264 232 7.25701 232 15.0274Z" fill="#F79E1B"/>
</g>
<defs>
<clipPath id="clip0_1984_26073">
<rect width="39.4005" height="35.2531" fill="white" transform="translate(0 1.01379)"/>
</clipPath>
<clipPath id="clip1_1984_26073">
<rect width="36.5588" height="35.2531" fill="white" transform="translate(60.2912 1.01379)"/>
</clipPath>
<clipPath id="clip2_1984_26073">
<rect width="47.67" height="15.0257" fill="white" transform="translate(117.741 11.1277)"/>
</clipPath>
<clipPath id="clip3_1984_26073">
<rect width="45.6985" height="35.4904" fill="white" transform="translate(186.302 0.895264)"/>
</clipPath>
</defs>
</svg>
